<svg width="12" height="13" viewBox="0 0 12 13" fill="none" xmlns="http://www.w3.org/2000/svg">
<path id="Vector" d="M6.3716 1.26252L7.59378 3.95425C7.62158 4.02257 7.6653 4.08175 7.7206 4.12589C7.7759 4.17003 7.84083 4.19758 7.90893 4.20581L10.607 4.64186C10.6851 4.65281 10.7587 4.68779 10.8193 4.7427C10.8799 4.79761 10.9249 4.87019 10.9491 4.95196C10.9733 5.03374 10.9756 5.12133 10.9559 5.20451C10.9361 5.28768 10.8951 5.36302 10.8376 5.42171L8.89283 7.52645C8.84319 7.57704 8.80594 7.64036 8.78446 7.71066C8.76298 7.78096 8.75796 7.856 8.76984 7.92896L9.23873 10.889C9.2523 10.9741 9.24372 11.0616 9.21396 11.1416C9.1842 11.2216 9.13445 11.2909 9.07038 11.3415C9.0063 11.3922 8.93048 11.4222 8.85153 11.4282C8.77258 11.4342 8.69368 11.4159 8.62379 11.3754L6.19481 9.97501C6.13261 9.9417 6.06424 9.92438 5.99495 9.92438C5.92566 9.92438 5.8573 9.9417 5.7951 9.97501L3.36611 11.3754C3.29623 11.4159 3.21733 11.4342 3.13838 11.4282C3.05943 11.4222 2.9836 11.3922 2.91953 11.3415C2.85546 11.2909 2.80571 11.2216 2.77595 11.1416C2.74618 11.0616 2.7376 10.9741 2.75118 10.889L3.22007 7.89541C3.23195 7.82246 3.22692 7.74742 3.20544 7.67712C3.18396 7.60682 3.14671 7.5435 3.09708 7.49291L1.12929 5.42171C1.07107 5.36141 1.03013 5.28399 1.01143 5.19883C0.992721 5.11367 0.997053 5.02442 1.0239 4.94189C1.05074 4.85936 1.09895 4.78709 1.16268 4.73384C1.2264 4.68059 1.30292 4.64864 1.38295 4.64186L4.08097 4.20581C4.14907 4.19758 4.21401 4.17003 4.26931 4.12589C4.3246 4.08175 4.36833 4.02257 4.39613 3.95425L5.61831 1.26252C5.65159 1.18412 5.70474 1.11775 5.77147 1.07123C5.83821 1.02472 5.91576 1 5.99495 1C6.07415 1 6.15169 1.02472 6.21843 1.07123C6.28517 1.11775 6.33832 1.18412 6.3716 1.26252Z" fill="#00B4D8" stroke="#111111" stroke-width="1.67709" stroke-linecap="round" stroke-linejoin="round"/>
</svg>
