<svg width="18" height="18" viewBox="0 0 18 18" fill="none" xmlns="http://www.w3.org/2000/svg">
<path id="Vector" d="M4.17857 4.10714H4.42857V3.85714V2.25C4.42857 1.71957 4.63929 1.21086 5.01436 0.835786C5.38943 0.460714 5.89814 0.25 6.42857 0.25H11.5714C12.1019 0.25 12.6106 0.460714 12.9856 0.835786C13.3607 1.21086 13.5714 1.71957 13.5714 2.25V3.85714V4.10714H13.8214H15.4286C16.0443 4.10714 16.6347 4.35172 17.0701 4.78707C17.5054 5.22243 17.75 5.81289 17.75 6.42857V15.4286C17.75 16.0443 17.5054 16.6347 17.0701 17.0701C16.6347 17.5054 16.0443 17.75 15.4286 17.75H2.57143C1.95575 17.75 1.36528 17.5054 0.929931 17.0701C0.494578 16.6347 0.25 16.0443 0.25 15.4286V6.42857C0.25 5.81289 0.494578 5.22243 0.929931 4.78707C1.36528 4.35172 1.95575 4.10714 2.57143 4.10714H4.17857ZM11.8929 4.10714H12.1429V3.85714V2.25C12.1429 2.09845 12.0827 1.9531 11.9755 1.84594L11.7987 2.02272L11.9755 1.84594C11.8683 1.73878 11.723 1.67857 11.5714 1.67857H6.42857C6.27702 1.67857 6.13167 1.73878 6.02451 1.84594C5.91735 1.9531 5.85714 2.09845 5.85714 2.25V3.85714V4.10714H6.10714H11.8929ZM16.0714 7.96429H16.3214V7.71429V6.42857C16.3214 6.19177 16.2274 5.96467 16.0599 5.79723C15.8925 5.62978 15.6654 5.53571 15.4286 5.53571H2.57143C2.33463 5.53571 2.10753 5.62978 1.94008 5.79723C1.77264 5.96467 1.67857 6.19177 1.67857 6.42857V7.71429V7.96429H1.92857H16.0714ZM1.92857 9.39286H1.67857V9.64286V15.4286C1.67857 15.6654 1.77264 15.8925 1.94008 16.0599C2.10753 16.2274 2.33463 16.3214 2.57143 16.3214H15.4286C15.6654 16.3214 15.8925 16.2274 16.0599 16.0599C16.2274 15.8925 16.3214 15.6654 16.3214 15.4286V9.64286V9.39286H16.0714H10.2857H10.0357V9.64286V11.3214H7.96429V9.64286V9.39286H7.71429H1.92857Z" fill="#111111" stroke="black" stroke-width="0.5"/>
</svg>
