<svg width="24" height="24" viewBox="0 0 24 24" fill="none" xmlns="http://www.w3.org/2000/svg">
<g id="ci:bell-notification">
<path id="Vector" d="M15 17.0018V18.0018C15 18.7975 14.6839 19.5605 14.1213 20.1232C13.5587 20.6858 12.7956 21.0018 12 21.0018C11.2044 21.0018 10.4413 20.6858 9.87868 20.1232C9.31607 19.5605 9 18.7975 9 18.0018V17.0018M15 17.0018H9M15 17.0018H19C19.2652 17.0018 19.5196 16.8965 19.7071 16.7089C19.8946 16.5214 20 16.2671 20 16.0018V15.4158C19.9999 15.1506 19.8946 14.8963 19.707 14.7088L19.197 14.1988C19.1345 14.1365 19.0849 14.0625 19.0511 13.981C19.0173 13.8995 18.9999 13.8121 19 13.7238V10.0018C19 9.82584 18.994 9.65084 18.98 9.47784M9 17.0018H5C4.73478 17.0018 4.48043 16.8965 4.29289 16.7089C4.10536 16.5214 4 16.2671 4 16.0018V15.4158C4.00006 15.1506 4.10545 14.8963 4.293 14.7088L4.803 14.1978C4.86543 14.1357 4.91496 14.0618 4.94877 13.9805C4.98258 13.8991 4.99999 13.8119 5 13.7238V10.0018C4.99978 8.90751 5.25614 7.82838 5.74849 6.85107C6.24085 5.87376 6.95547 5.02549 7.83501 4.37437C8.71455 3.72325 9.7345 3.28741 10.813 3.10184C11.8915 2.91627 12.9984 2.98614 14.045 3.30584M18.98 9.47784C19.4818 9.19143 19.9155 8.79973 20.2515 8.32967C20.5874 7.85961 20.8175 7.32236 20.926 6.75488C21.0345 6.1874 21.0187 5.60315 20.8798 5.04234C20.7409 4.48152 20.4822 3.95745 20.1214 3.50618C19.7607 3.0549 19.3064 2.68714 18.7899 2.42818C18.2735 2.16923 17.707 2.02523 17.1296 2.0061C16.5521 1.98697 15.9774 2.09315 15.4449 2.31735C14.9124 2.54155 14.4349 2.87944 14.045 3.30584M18.98 9.47784C18.152 9.95042 17.1825 10.1118 16.2461 9.93278C15.3098 9.7538 14.4681 9.24626 13.8728 8.50164C13.2775 7.75701 12.9677 6.82425 12.9993 5.87144C13.0309 4.91863 13.4017 4.00943 14.045 3.30584M14.045 3.30584H14.047" stroke="black" stroke-width="2" stroke-linecap="round" stroke-linejoin="round"/>
<circle id="Ellipse 58" cx="4" cy="4" r="4" transform="matrix(1 0 0 -1 13 10)" fill="#FF0000"/>
</g>
</svg>
