<svg width="24" height="24" viewBox="0 0 24 24" fill="none" xmlns="http://www.w3.org/2000/svg">
<g id="ci:bell-notification">
<path id="Vector" d="M15 16.9999V17.9999C15 18.7955 14.6839 19.5586 14.1213 20.1212C13.5587 20.6838 12.7956 20.9999 12 20.9999C11.2044 20.9999 10.4413 20.6838 9.87868 20.1212C9.31607 19.5586 9 18.7955 9 17.9999V16.9999M15 16.9999H9M15 16.9999H19C19.2652 16.9999 19.5196 16.8945 19.7071 16.707C19.8946 16.5195 20 16.2651 20 15.9999V15.4139C19.9999 15.1487 19.8946 14.8944 19.707 14.7069L19.197 14.1969C19.1345 14.1346 19.0849 14.0606 19.0511 13.979C19.0173 13.8975 18.9999 13.8101 19 13.7219V9.99988C19 9.82388 18.994 9.64888 18.98 9.47588M9 16.9999H5C4.73478 16.9999 4.48043 16.8945 4.29289 16.707C4.10536 16.5195 4 16.2651 4 15.9999V15.4139C4.00006 15.1487 4.10545 14.8944 4.293 14.7069L4.803 14.1959C4.86543 14.1337 4.91496 14.0599 4.94877 13.9785C4.98258 13.8972 4.99999 13.81 5 13.7219V9.99988C4.99978 8.90556 5.25614 7.82643 5.74849 6.84911C6.24085 5.8718 6.95547 5.02354 7.83501 4.37242C8.71455 3.7213 9.7345 3.28546 10.813 3.09989C11.8915 2.91432 12.9984 2.98418 14.045 3.30388M18.98 9.47588C19.4818 9.18948 19.9155 8.79777 20.2515 8.32772C20.5874 7.85766 20.8175 7.32041 20.926 6.75293C21.0345 6.18544 21.0187 5.6012 20.8798 5.04038C20.7409 4.47957 20.4822 3.9555 20.1214 3.50422C19.7607 3.05295 19.3064 2.68518 18.7899 2.42623C18.2735 2.16728 17.707 2.02328 17.1296 2.00415C16.5521 1.98501 15.9774 2.0912 15.4449 2.3154C14.9124 2.53959 14.4349 2.87748 14.045 3.30388M18.98 9.47588C18.152 9.94847 17.1825 10.1098 16.2461 9.93083C15.3098 9.75184 14.4681 9.24431 13.8728 8.49968C13.2775 7.75506 12.9677 6.8223 12.9993 5.86949C13.0309 4.91668 13.4017 4.00747 14.045 3.30388M14.045 3.30388H14.047" stroke="black" stroke-width="2" stroke-linecap="round" stroke-linejoin="round"/>
<circle id="Ellipse 58" cx="4" cy="4" r="4" transform="matrix(1 0 0 -1 13 10)" fill="#FF0000"/>
</g>
</svg>
