<svg width="15" height="10" viewBox="0 0 15 10" fill="none" xmlns="http://www.w3.org/2000/svg">
<g id="Group 100">
<g id="Rectangle 6">
<rect width="13.125" height="6.54545" rx="2" fill="#0077B6"/>
<rect width="13.125" height="6.54545" rx="2" fill="black" fill-opacity="0.2"/>
</g>
<g id="Polygon 1">
<path d="M10.9794 7.84421C10.1797 8.91877 8.57031 8.91878 7.77058 7.84421L6.88077 6.64862C5.89883 5.32923 6.84051 3.45454 8.48519 3.45454L10.2648 3.45454C11.9095 3.45454 12.8512 5.32923 11.8692 6.64862L10.9794 7.84421Z" fill="#0077B6"/>
<path d="M10.9794 7.84421C10.1797 8.91877 8.57031 8.91878 7.77058 7.84421L6.88077 6.64862C5.89883 5.32923 6.84051 3.45454 8.48519 3.45454L10.2648 3.45454C11.9095 3.45454 12.8512 5.32923 11.8692 6.64862L10.9794 7.84421Z" fill="black" fill-opacity="0.2"/>
</g>
</g>
</svg>
