<svg width="23" height="24" viewBox="0 0 23 24" fill="none" xmlns="http://www.w3.org/2000/svg">
<g id="fluent:people-community-24-regular">
<path id="Vector" d="M7.16267 3.54749C6.78333 3.54749 6.41952 3.69819 6.15129 3.96642C5.88305 4.23465 5.73236 4.59846 5.73236 4.9778C5.73236 5.35714 5.88305 5.72094 6.15129 5.98918C6.41952 6.25741 6.78333 6.4081 7.16267 6.4081C7.54201 6.4081 7.90581 6.25741 8.17405 5.98918C8.44228 5.72094 8.59297 5.35714 8.59297 4.9778C8.59297 4.59846 8.44228 4.23465 8.17405 3.96642C7.90581 3.69819 7.54201 3.54749 7.16267 3.54749ZM4.30206 4.9778C4.30206 4.21912 4.60344 3.49151 5.13991 2.95504C5.67638 2.41857 6.40399 2.11719 7.16267 2.11719C7.92135 2.11719 8.64896 2.41857 9.18542 2.95504C9.72189 3.49151 10.0233 4.21912 10.0233 4.9778C10.0233 5.73648 9.72189 6.46409 9.18542 7.00056C8.64896 7.53702 7.92135 7.83841 7.16267 7.83841C6.40399 7.83841 5.67638 7.53702 5.13991 7.00056C4.60344 6.46409 4.30206 5.73648 4.30206 4.9778ZM3.60407 8.79195C2.67151 8.79195 1.91821 9.54619 1.91821 10.4778V10.8211C1.91821 11.0185 1.91821 12.1637 2.58569 13.2764C3.10823 14.1441 3.99406 14.9232 5.42246 15.2722C5.6181 14.7521 5.97237 14.3068 6.43512 13.9992C4.9066 13.8362 4.18382 13.1572 3.81289 12.5403C3.35138 11.7717 3.34852 10.9536 3.34852 10.8182V10.4778C3.34852 10.3367 3.46294 10.2223 3.60407 10.2223H7.66804C7.73103 9.71802 7.89479 9.23161 8.14958 8.79195H3.60407ZM14.7576 8.79195C15.0065 9.22295 15.1743 9.70639 15.2382 10.2223H19.3031C19.4442 10.2223 19.5586 10.3367 19.5586 10.4778V10.8182C19.5586 10.9536 19.5558 11.7717 19.0943 12.5393C18.7233 13.1572 18.0006 13.8362 16.472 13.9992C16.9297 14.3043 17.2883 14.7487 17.4847 15.2722C18.9131 14.9232 19.7989 14.1441 20.3205 13.2764C20.989 12.1637 20.989 11.0194 20.989 10.8201V10.4768C20.989 9.54715 20.2347 8.79195 19.3031 8.79195H14.7576ZM14.3142 4.9778C14.3142 4.59846 14.4649 4.23465 14.7331 3.96642C15.0014 3.69819 15.3652 3.54749 15.7445 3.54749C16.1238 3.54749 16.4876 3.69819 16.7559 3.96642C17.0241 4.23465 17.1748 4.59846 17.1748 4.9778C17.1748 5.35714 17.0241 5.72094 16.7559 5.98918C16.4876 6.25741 16.1238 6.4081 15.7445 6.4081C15.3652 6.4081 15.0014 6.25741 14.7331 5.98918C14.4649 5.72094 14.3142 5.35714 14.3142 4.9778ZM15.7445 2.11719C14.9858 2.11719 14.2582 2.41857 13.7217 2.95504C13.1853 3.49151 12.8839 4.21912 12.8839 4.9778C12.8839 5.73648 13.1853 6.46409 13.7217 7.00056C14.2582 7.53702 14.9858 7.83841 15.7445 7.83841C16.5032 7.83841 17.2308 7.53702 17.7673 7.00056C18.3037 6.46409 18.6051 5.73648 18.6051 4.9778C18.6051 4.21912 18.3037 3.49151 17.7673 2.95504C17.2308 2.41857 16.5032 2.11719 15.7445 2.11719ZM11.4536 9.26871C11.2658 9.26871 11.0798 9.30571 10.9062 9.37759C10.7327 9.44947 10.575 9.55483 10.4422 9.68764C10.3094 9.82046 10.204 9.97813 10.1322 10.1517C10.0603 10.3252 10.0233 10.5112 10.0233 10.699C10.0233 10.8869 10.0603 11.0728 10.1322 11.2464C10.204 11.4199 10.3094 11.5776 10.4422 11.7104C10.575 11.8432 10.7327 11.9486 10.9062 12.0205C11.0798 12.0923 11.2658 12.1293 11.4536 12.1293C11.8329 12.1293 12.1967 11.9786 12.465 11.7104C12.7332 11.4422 12.8839 11.0784 12.8839 10.699C12.8839 10.3197 12.7332 9.95588 12.465 9.68764C12.1967 9.41941 11.8329 9.26871 11.4536 9.26871ZM8.59297 10.699C8.59297 9.94034 8.89436 9.21273 9.43082 8.67626C9.96729 8.13979 10.6949 7.83841 11.4536 7.83841C12.2123 7.83841 12.9399 8.13979 13.4763 8.67626C14.0128 9.21273 14.3142 9.94034 14.3142 10.699C14.3142 11.4577 14.0128 12.1853 13.4763 12.7218C12.9399 13.2582 12.2123 13.5596 11.4536 13.5596C10.6949 13.5596 9.96729 13.2582 9.43082 12.7218C8.89436 12.1853 8.59297 11.4577 8.59297 10.699ZM6.20913 16.199C6.20913 15.2665 6.96338 14.5132 7.89498 14.5132H15.0122C15.9438 14.5132 16.698 15.2674 16.698 16.199V16.5423C16.698 16.7397 16.698 17.8849 16.0306 18.9977C15.3221 20.1743 13.9452 21.1879 11.4536 21.1879C8.96199 21.1879 7.58413 20.1743 6.87661 18.9977C6.20913 17.8849 6.20913 16.7406 6.20913 16.5413V16.199ZM7.89498 15.9435C7.86142 15.9435 7.82819 15.9501 7.79719 15.9629C7.76618 15.9758 7.73801 15.9946 7.71428 16.0183C7.69055 16.0421 7.67173 16.0702 7.65889 16.1012C7.64604 16.1322 7.63943 16.1655 7.63943 16.199V16.5394C7.63943 16.6748 7.6423 17.493 8.10381 18.2606C8.52909 18.969 9.41683 19.7576 11.4536 19.7576C13.4903 19.7576 14.3781 18.969 14.8034 18.2606C15.2649 17.493 15.2677 16.6748 15.2677 16.5394V16.199C15.2677 16.1312 15.2408 16.0662 15.1929 16.0183C15.145 15.9704 15.08 15.9435 15.0122 15.9435H7.89498Z" fill="#0F0E0E"/>
</g>
</svg>
