<svg width="19" height="18" viewBox="0 0 19 18" fill="none" xmlns="http://www.w3.org/2000/svg">
<g id="CreditCard">
<rect width="18" height="18" transform="translate(0.729736)" fill="white"/>
<path id="Vector" d="M4.32979 3.59961C3.8524 3.59961 3.39456 3.78925 3.05699 4.12682C2.71943 4.46438 2.52979 4.92222 2.52979 5.39961V6.29961H16.9298V5.39961C16.9298 4.92222 16.7401 4.46438 16.4026 4.12682C16.065 3.78925 15.6072 3.59961 15.1298 3.59961H4.32979Z" fill="#00B4BD"/>
<path id="Vector_2" fill-rule="evenodd" clip-rule="evenodd" d="M16.9298 8.09961H2.52979V12.5996C2.52979 13.077 2.71943 13.5348 3.05699 13.8724C3.39456 14.21 3.8524 14.3996 4.32979 14.3996H15.1298C15.6072 14.3996 16.065 14.21 16.4026 13.8724C16.7401 13.5348 16.9298 13.077 16.9298 12.5996V8.09961ZM4.32979 11.6996C4.32979 11.4609 4.42461 11.232 4.59339 11.0632C4.76217 10.8944 4.99109 10.7996 5.22978 10.7996H6.12979C6.36848 10.7996 6.5974 10.8944 6.76618 11.0632C6.93496 11.232 7.02979 11.4609 7.02979 11.6996C7.02979 11.9383 6.93496 12.1672 6.76618 12.336C6.5974 12.5048 6.36848 12.5996 6.12979 12.5996H5.22978C4.99109 12.5996 4.76217 12.5048 4.59339 12.336C4.42461 12.1672 4.32979 11.9383 4.32979 11.6996ZM8.82978 10.7996C8.59109 10.7996 8.36217 10.8944 8.19339 11.0632C8.02461 11.232 7.92978 11.4609 7.92978 11.6996C7.92978 11.9383 8.02461 12.1672 8.19339 12.336C8.36217 12.5048 8.59109 12.5996 8.82978 12.5996H9.72978C9.96848 12.5996 10.1974 12.5048 10.3662 12.336C10.535 12.1672 10.6298 11.9383 10.6298 11.6996C10.6298 11.4609 10.535 11.232 10.3662 11.0632C10.1974 10.8944 9.96848 10.7996 9.72978 10.7996H8.82978Z" fill="#00B4BD"/>
</g>
</svg>
