<svg width="18" height="18" viewBox="0 0 18 18" fill="none" xmlns="http://www.w3.org/2000/svg">
<g id="fa-solid:smile-wink" clip-path="url(#clip0_1660_2291)">
<path id="Vector" d="M0 9C0 13.8164 4.02823 17.7188 9 17.7188C13.9718 17.7188 18 13.8164 18 9C18 4.18359 13.9718 0.28125 9 0.28125C4.02823 0.28125 0 4.18359 0 9ZM7.25806 7.3125C7.25806 7.93477 6.73911 8.4375 6.09677 8.4375C5.45444 8.4375 4.93548 7.93477 4.93548 7.3125C4.93548 6.69023 5.45444 6.1875 6.09677 6.1875C6.73911 6.1875 7.25806 6.69023 7.25806 7.3125ZM13.0101 7.89258C12.473 7.42852 11.3335 7.42852 10.7964 7.89258L10.4516 8.19141C10.1504 8.45156 9.66774 8.20547 9.73306 7.81172C9.87823 6.92578 10.9742 6.33164 11.9069 6.33164C12.8395 6.33164 13.9355 6.92578 14.0806 7.81172C14.1423 8.20195 13.6669 8.45508 13.3621 8.19141L13.0101 7.89258ZM5.72661 11.4539C6.53952 12.3996 7.72984 12.9375 9 12.9375C10.2702 12.9375 11.4605 12.3961 12.2734 11.4539C12.7669 10.8844 13.656 11.6016 13.1661 12.1746C12.1319 13.3734 10.6149 14.0625 9 14.0625C7.38508 14.0625 5.86814 13.3734 4.83387 12.1711C4.34395 11.598 5.24032 10.8809 5.72661 11.4539Z" fill="#00B4D8"/>
</g>
<defs>
<clipPath id="clip0_1660_2291">
<rect width="18" height="18" fill="white"/>
</clipPath>
</defs>
</svg>
