<svg width="15" height="10" viewBox="0 0 15 10" fill="none" xmlns="http://www.w3.org/2000/svg">
<g id="Group 99">
<g id="Ellipse 59">
<path d="M14.5 5C14.5 5.99801 13.8232 6.98696 12.5461 7.75323C11.2789 8.51354 9.49603 9 7.5 9C5.50397 9 3.72112 8.51354 2.45395 7.75323C1.17682 6.98696 0.5 5.99801 0.5 5C0.5 4.00199 1.17682 3.01304 2.45395 2.24677C3.72112 1.48646 5.50397 1 7.5 1C9.49603 1 11.2789 1.48646 12.5461 2.24677C13.8232 3.01304 14.5 4.00199 14.5 5Z" fill="white"/>
<path d="M14.5 5C14.5 5.99801 13.8232 6.98696 12.5461 7.75323C11.2789 8.51354 9.49603 9 7.5 9C5.50397 9 3.72112 8.51354 2.45395 7.75323C1.17682 6.98696 0.5 5.99801 0.5 5C0.5 4.00199 1.17682 3.01304 2.45395 2.24677C3.72112 1.48646 5.50397 1 7.5 1C9.49603 1 11.2789 1.48646 12.5461 2.24677C13.8232 3.01304 14.5 4.00199 14.5 5Z" stroke="#0077B6"/>
<path d="M14.5 5C14.5 5.99801 13.8232 6.98696 12.5461 7.75323C11.2789 8.51354 9.49603 9 7.5 9C5.50397 9 3.72112 8.51354 2.45395 7.75323C1.17682 6.98696 0.5 5.99801 0.5 5C0.5 4.00199 1.17682 3.01304 2.45395 2.24677C3.72112 1.48646 5.50397 1 7.5 1C9.49603 1 11.2789 1.48646 12.5461 2.24677C13.8232 3.01304 14.5 4.00199 14.5 5Z" stroke="black" stroke-opacity="0.2"/>
</g>
<g id="Ellipse 61">
<ellipse cx="7.50005" cy="5" rx="1.97368" ry="2.5" fill="#0077B6"/>
<ellipse cx="7.50005" cy="5" rx="1.97368" ry="2.5" fill="black" fill-opacity="0.2"/>
</g>
</g>
</svg>
