<svg width="25" height="24" viewBox="0 0 25 24" fill="none" xmlns="http://www.w3.org/2000/svg">
<g id="EyeOutline">
<path id="Vector" d="M15.5 12C15.5 12.7956 15.1839 13.5587 14.6213 14.1213C14.0587 14.6839 13.2956 15 12.5 15C11.7044 15 10.9413 14.6839 10.3787 14.1213C9.81607 13.5587 9.5 12.7956 9.5 12C9.5 11.2044 9.81607 10.4413 10.3787 9.87868C10.9413 9.31607 11.7044 9 12.5 9C13.2956 9 14.0587 9.31607 14.6213 9.87868C15.1839 10.4413 15.5 11.2044 15.5 12Z" stroke="#A7A4A4" stroke-width="2" stroke-linecap="round" stroke-linejoin="round"/>
<path id="Vector_2" d="M2.95801 12C4.23201 7.943 8.02301 5 12.5 5C16.978 5 20.768 7.943 22.042 12C20.768 16.057 16.978 19 12.5 19C8.02301 19 4.23201 16.057 2.95801 12Z" stroke="#A7A4A4" stroke-width="2" stroke-linecap="round" stroke-linejoin="round"/>
</g>
</svg>
