<svg width="18" height="18" viewBox="0 0 18 18" fill="none" xmlns="http://www.w3.org/2000/svg">
<g id="twemoji:flag-canada" clip-path="url(#clip0_2252_7972)">
<path id="Vector" d="M2 2.5C1.46957 2.5 0.960859 2.71071 0.585786 3.08579C0.210714 3.46086 0 3.96957 0 4.5L0 13.5C0 14.0304 0.210714 14.5391 0.585786 14.9142C0.960859 15.2893 1.46957 15.5 2 15.5H5V2.5H2ZM16 2.5H13V15.5H16C16.5304 15.5 17.0391 15.2893 17.4142 14.9142C17.7893 14.5391 18 14.0304 18 13.5V4.5C18 3.96957 17.7893 3.46086 17.4142 3.08579C17.0391 2.71071 16.5304 2.5 16 2.5Z" fill="#D52B1E"/>
<path id="Vector_2" d="M5 2.5H13V15.5H5V2.5Z" fill="#EEEEEE"/>
<path id="Vector_3" d="M9.30756 11.0568C9.90656 11.1263 10.4436 11.1888 11.0421 11.2573L10.8896 10.7563C10.8783 10.7132 10.8799 10.6677 10.894 10.6255C10.9081 10.5832 10.9342 10.546 10.9691 10.5183L12.7086 9.10127L12.3486 8.93177C12.1901 8.87527 12.2336 8.78577 12.2911 8.57077L12.5566 7.60277L11.5461 7.81627C11.4476 7.83127 11.3821 7.76877 11.3671 7.70877L11.2366 7.25327L10.4376 8.15027C10.3241 8.29427 10.0941 8.29427 10.1656 7.96227L10.5071 6.14527L10.0486 6.38277C9.92006 6.45477 9.79156 6.46677 9.72006 6.33827L9.08756 5.15527L8.45506 6.33827C8.38306 6.46677 8.25456 6.45477 8.12606 6.38277L7.66806 6.14527L8.00956 7.96227C8.08156 8.29427 7.85106 8.29427 7.73756 8.15027L6.93856 7.25377L6.80856 7.70927C6.79356 7.76927 6.72756 7.83177 6.62906 7.81677L5.61856 7.60327L5.88406 8.57127C5.94056 8.78627 5.98456 8.87577 5.82606 8.93227L5.46606 9.10177L7.20556 10.5188C7.27456 10.5723 7.30956 10.6688 7.28456 10.7568L7.13206 11.2578L8.86706 11.0573C8.92006 11.0573 8.95506 11.0868 8.95456 11.1478L8.84756 12.9998H9.32556L9.21906 11.1478C9.22006 11.0863 9.25456 11.0568 9.30756 11.0568Z" fill="#D52B1E"/>
</g>
<defs>
<clipPath id="clip0_2252_7972">
<rect width="18" height="18" fill="white"/>
</clipPath>
</defs>
</svg>
