<svg width="25" height="24" viewBox="0 0 25 24" fill="none" xmlns="http://www.w3.org/2000/svg">
<g id="simple-icons:linkedin" clip-path="url(#clip0_1916_1759)">
<path id="Vector" d="M20.5722 20.452H17.0182V14.883C17.0182 13.555 16.9912 11.846 15.1662 11.846C13.3132 11.846 13.0302 13.291 13.0302 14.785V20.452H9.47624V9H12.8902V10.561H12.9362C13.4132 9.661 14.5732 8.711 16.3062 8.711C19.9072 8.711 20.5732 11.081 20.5732 14.166L20.5722 20.452ZM5.46224 7.433C5.19112 7.43313 4.92263 7.37979 4.67215 7.27604C4.42167 7.17229 4.1941 7.02015 4.00248 6.82835C3.81086 6.63654 3.65895 6.40883 3.55544 6.15825C3.45193 5.90766 3.39885 5.63912 3.39924 5.368C3.39944 4.95978 3.52069 4.56078 3.74765 4.22147C3.97461 3.88216 4.29709 3.61777 4.67431 3.46173C5.05153 3.30569 5.46655 3.26502 5.86689 3.34485C6.26723 3.42469 6.6349 3.62144 6.92342 3.91024C7.21193 4.19903 7.40833 4.5669 7.48778 4.96731C7.56723 5.36773 7.52615 5.78271 7.36975 6.15978C7.21335 6.53685 6.94864 6.85908 6.60911 7.08571C6.26958 7.31234 5.87046 7.4332 5.46224 7.433ZM7.24424 20.452H3.68024V9H7.24424V20.452ZM22.3502 0H1.89624C0.917244 0 0.125244 0.774 0.125244 1.729V22.271C0.125244 23.227 0.917244 24 1.89624 24H22.3472C23.3252 24 24.1252 23.227 24.1252 22.271V1.729C24.1252 0.774 23.3252 0 22.3472 0H22.3502Z" fill="#F5F0F6"/>
</g>
<defs>
<clipPath id="clip0_1916_1759">
<rect width="24" height="24" fill="white" transform="translate(0.125244)"/>
</clipPath>
</defs>
</svg>
