<svg width="25" height="24" viewBox="0 0 25 24" fill="none" xmlns="http://www.w3.org/2000/svg">
<path id="Vector" d="M12.1252 0C5.52524 0 0.125244 5.40964 0.125244 12.0723C0.125244 18.0964 4.51724 23.0964 10.2532 24V15.5663H7.20524V12.0723H10.2532V9.40964C10.2532 6.38554 12.0412 4.72289 14.7892 4.72289C16.0972 4.72289 17.4652 4.95181 17.4652 4.95181V7.92771H15.9532C14.4652 7.92771 13.9972 8.85542 13.9972 9.80723V12.0723H17.3332L16.7932 15.5663H13.9972V24C16.825 23.5516 19.3999 22.103 21.2571 19.9157C23.1144 17.7284 24.1316 14.9466 24.1252 12.0723C24.1252 5.40964 18.7252 0 12.1252 0Z" fill="#F5F0F6"/>
</svg>
