<svg width="100" height="100" viewBox="0 0 100 100" fill="none" xmlns="http://www.w3.org/2000/svg">
<g id="Group Image">
<circle id="Ellipse 37" cx="50" cy="50" r="50" fill="#D9D9D9"/>
<path id="Vector" d="M50 10C53.8677 10 57.5771 11.5365 60.312 14.2714C63.0469 17.0063 64.5833 20.7156 64.5833 24.5833C64.5833 28.4511 63.0469 32.1604 60.312 34.8953C57.5771 37.6302 53.8677 39.1667 50 39.1667C46.1323 39.1667 42.4229 37.6302 39.688 34.8953C36.9531 32.1604 35.4167 28.4511 35.4167 24.5833C35.4167 20.7156 36.9531 17.0063 39.688 14.2714C42.4229 11.5365 46.1323 10 50 10ZM20.8333 20.4167C23.1667 20.4167 25.3333 21.0417 27.2083 22.1667C26.5833 28.125 28.3333 34.0417 31.9167 38.6667C29.8333 42.6667 25.6667 45.4167 20.8333 45.4167C17.5181 45.4167 14.3387 44.0997 11.9945 41.7555C9.65029 39.4113 8.33333 36.2319 8.33333 32.9167C8.33333 29.6015 9.65029 26.422 11.9945 24.0778C14.3387 21.7336 17.5181 20.4167 20.8333 20.4167ZM79.1667 20.4167C82.4819 20.4167 85.6613 21.7336 88.0055 24.0778C90.3497 26.422 91.6667 29.6015 91.6667 32.9167C91.6667 36.2319 90.3497 39.4113 88.0055 41.7555C85.6613 44.0997 82.4819 45.4167 79.1667 45.4167C74.3333 45.4167 70.1667 42.6667 68.0833 38.6667C71.7161 33.9767 73.4024 28.0675 72.7917 22.1667C74.6667 21.0417 76.8333 20.4167 79.1667 20.4167ZM22.9167 63.125C22.9167 54.5 35.0417 47.5 50 47.5C64.9583 47.5 77.0833 54.5 77.0833 63.125V70.4167H22.9167V63.125ZM0 70.4167V64.1667C0 58.375 7.875 53.5 18.5417 52.0833C16.0833 54.9167 14.5833 58.8333 14.5833 63.125V70.4167H0ZM100 70.4167H85.4167V63.125C85.4167 58.8333 83.9167 54.9167 81.4583 52.0833C92.125 53.5 100 58.375 100 64.1667V70.4167Z" fill="black"/>
</g>
</svg>
