<svg width="25" height="25" viewBox="0 0 25 25" fill="none" xmlns="http://www.w3.org/2000/svg">
<g id="simple-icons:linkedin" clip-path="url(#clip0_225_87)">
<path id="Vector" d="M20.947 20.952H17.393V15.383C17.393 14.055 17.366 12.346 15.541 12.346C13.688 12.346 13.405 13.791 13.405 15.285V20.952H9.851V9.5H13.265V11.061H13.311C13.788 10.161 14.948 9.211 16.681 9.211C20.282 9.211 20.948 11.581 20.948 14.666L20.947 20.952ZM5.837 7.933C5.56588 7.93313 5.29739 7.87979 5.04691 7.77604C4.79642 7.67229 4.56886 7.52015 4.37724 7.32835C4.18562 7.13654 4.0337 6.90883 3.93019 6.65825C3.82668 6.40766 3.77361 6.13912 3.774 5.868C3.7742 5.45978 3.89544 5.06078 4.1224 4.72147C4.34936 4.38216 4.67184 4.11777 5.04907 3.96173C5.42629 3.80569 5.84131 3.76502 6.24165 3.84485C6.64198 3.92469 7.00966 4.12144 7.29817 4.41024C7.58669 4.69903 7.78309 5.0669 7.86254 5.46731C7.94198 5.86773 7.90091 6.28271 7.7445 6.65978C7.5881 7.03685 7.3234 7.35908 6.98387 7.58571C6.64433 7.81234 6.24522 7.9332 5.837 7.933ZM7.619 20.952H4.055V9.5H7.619V20.952ZM22.725 0.5H2.271C1.292 0.5 0.5 1.274 0.5 2.229V22.771C0.5 23.727 1.292 24.5 2.271 24.5H22.722C23.7 24.5 24.5 23.727 24.5 22.771V2.229C24.5 1.274 23.7 0.5 22.722 0.5H22.725Z" fill="#0077B6"/>
</g>
<defs>
<clipPath id="clip0_225_87">
<rect width="24" height="24" fill="white" transform="translate(0.5 0.5)"/>
</clipPath>
</defs>
</svg>
