<svg width="25" height="24" viewBox="0 0 25 24" fill="none" xmlns="http://www.w3.org/2000/svg">
<g id="instagram" clip-path="url(#clip0_1916_1752)">
<path id="Vector" d="M5.92524 2.25H14.3252C17.5252 2.25 20.1252 4.85 20.1252 8.05V16.45C20.1252 17.9883 19.5142 19.4635 18.4265 20.5512C17.3388 21.6389 15.8635 22.25 14.3252 22.25H5.92524C2.72524 22.25 0.125244 19.65 0.125244 16.45V8.05C0.125244 6.51174 0.736314 5.03649 1.82402 3.94878C2.91174 2.86107 4.38699 2.25 5.92524 2.25ZM5.72524 4.25C4.77046 4.25 3.85479 4.62928 3.17966 5.30442C2.50453 5.97955 2.12524 6.89522 2.12524 7.85V16.65C2.12524 18.64 3.73524 20.25 5.72524 20.25H14.5252C15.48 20.25 16.3957 19.8707 17.0708 19.1956C17.746 18.5205 18.1252 17.6048 18.1252 16.65V7.85C18.1252 5.86 16.5152 4.25 14.5252 4.25H5.72524ZM15.3752 5.75C15.7068 5.75 16.0247 5.8817 16.2591 6.11612C16.4935 6.35054 16.6252 6.66848 16.6252 7C16.6252 7.33152 16.4935 7.64946 16.2591 7.88388C16.0247 8.1183 15.7068 8.25 15.3752 8.25C15.0437 8.25 14.7258 8.1183 14.4914 7.88388C14.2569 7.64946 14.1252 7.33152 14.1252 7C14.1252 6.66848 14.2569 6.35054 14.4914 6.11612C14.7258 5.8817 15.0437 5.75 15.3752 5.75ZM10.1252 7.25C11.4513 7.25 12.7231 7.77678 13.6608 8.71447C14.5985 9.65215 15.1252 10.9239 15.1252 12.25C15.1252 13.5761 14.5985 14.8479 13.6608 15.7855C12.7231 16.7232 11.4513 17.25 10.1252 17.25C8.79916 17.25 7.52739 16.7232 6.58971 15.7855C5.65203 14.8479 5.12524 13.5761 5.12524 12.25C5.12524 10.9239 5.65203 9.65215 6.58971 8.71447C7.52739 7.77678 8.79916 7.25 10.1252 7.25ZM10.1252 9.25C9.32959 9.25 8.56653 9.56607 8.00392 10.1287C7.44131 10.6913 7.12524 11.4544 7.12524 12.25C7.12524 13.0456 7.44131 13.8087 8.00392 14.3713C8.56653 14.9339 9.32959 15.25 10.1252 15.25C10.9209 15.25 11.684 14.9339 12.2466 14.3713C12.8092 13.8087 13.1252 13.0456 13.1252 12.25C13.1252 11.4544 12.8092 10.6913 12.2466 10.1287C11.684 9.56607 10.9209 9.25 10.1252 9.25Z" fill="#F5F0F6"/>
</g>
<defs>
<clipPath id="clip0_1916_1752">
<rect width="24" height="24" fill="white" transform="translate(0.125244)"/>
</clipPath>
</defs>
</svg>
