<svg width="10" height="18" viewBox="0 0 10 18" fill="none" xmlns="http://www.w3.org/2000/svg">
<path id="Vector" d="M8.96389 17.2053C9.09472 17.0713 9.16797 16.8915 9.16797 16.7043C9.16797 16.517 9.09472 16.3372 8.96389 16.2033L1.65439 8.70477L8.96389 1.20777C9.09472 1.07382 9.16797 0.894011 9.16797 0.70677C9.16797 0.519529 9.09472 0.339716 8.96389 0.20577C8.90029 0.140455 8.82426 0.088541 8.74027 0.0530949C8.65629 0.0176468 8.56605 -0.000614166 8.47489 -0.000614166C8.38373 -0.000614166 8.29349 0.0176468 8.2095 0.0530949C8.12552 0.088541 8.04948 0.140455 7.98589 0.20577L0.212889 8.18127C0.0763683 8.32133 -3.8147e-05 8.50918 -3.8147e-05 8.70477C-3.8147e-05 8.90036 0.0763683 9.08821 0.212889 9.22827L7.98589 17.2038C8.04948 17.2691 8.12552 17.321 8.2095 17.3564C8.29349 17.3919 8.38373 17.4102 8.47489 17.4102C8.56605 17.4102 8.65629 17.3919 8.74027 17.3564C8.82426 17.321 8.90029 17.2691 8.96389 17.2038V17.2053Z" fill="#111111"/>
</svg>
