<svg width="46" height="46" viewBox="0 0 46 46" fill="none" xmlns="http://www.w3.org/2000/svg">
<g id="mdi:camera">
<rect width="46" height="46" fill="white"/>
<path id="Vector" d="M7.66665 7.66732H13.4166L17.25 3.83398H28.75L32.5833 7.66732H38.3333C39.35 7.66732 40.325 8.07119 41.0439 8.79008C41.7628 9.50897 42.1666 10.484 42.1666 11.5007V34.5007C42.1666 35.5173 41.7628 36.4923 41.0439 37.2112C40.325 37.9301 39.35 38.334 38.3333 38.334H7.66665C6.64998 38.334 5.67496 37.9301 4.95607 37.2112C4.23718 36.4923 3.83331 35.5173 3.83331 34.5007V11.5007C3.83331 10.484 4.23718 9.50897 4.95607 8.79008C5.67496 8.07119 6.64998 7.66732 7.66665 7.66732ZM23 13.4173C20.4583 13.4173 18.0208 14.427 16.2235 16.2242C14.4263 18.0214 13.4166 20.459 13.4166 23.0007C13.4166 25.5423 14.4263 27.9799 16.2235 29.7771C18.0208 31.5743 20.4583 32.584 23 32.584C25.5416 32.584 27.9792 31.5743 29.7764 29.7771C31.5736 27.9799 32.5833 25.5423 32.5833 23.0007C32.5833 20.459 31.5736 18.0214 29.7764 16.2242C27.9792 14.427 25.5416 13.4173 23 13.4173ZM23 17.2507C24.525 17.2507 25.9875 17.8565 27.0658 18.9348C28.1442 20.0131 28.75 21.4757 28.75 23.0007C28.75 24.5256 28.1442 25.9882 27.0658 27.0665C25.9875 28.1449 24.525 28.7507 23 28.7507C21.475 28.7507 20.0124 28.1449 18.9341 27.0665C17.8558 25.9882 17.25 24.5256 17.25 23.0007C17.25 21.4757 17.8558 20.0131 18.9341 18.9348C20.0124 17.8565 21.475 17.2507 23 17.2507Z" fill="#545454"/>
</g>
</svg>
