<svg width="19" height="18" viewBox="0 0 19 18" fill="none" xmlns="http://www.w3.org/2000/svg">
<path id="Vector" d="M7.02974 16.2V18H5.22974V16.2H7.02974ZM10.6297 16.2V18H8.82974V16.2H10.6297ZM14.2297 16.2V18H12.4297V16.2H14.2297ZM16.9297 14.4H2.52974C2.05235 14.4 1.59451 14.2104 1.25694 13.8728C0.919379 13.5352 0.729736 13.0774 0.729736 12.6V1.8C0.729736 1.32261 0.919379 0.864773 1.25694 0.527208C1.59451 0.189642 2.05235 0 2.52974 0H16.9297C17.4071 0 17.865 0.189642 18.2025 0.527208C18.5401 0.864773 18.7297 1.32261 18.7297 1.8V12.6C18.7297 13.0774 18.5401 13.5352 18.2025 13.8728C17.865 14.2104 17.4071 14.4 16.9297 14.4ZM8.82974 8.1H7.02974V9.9H8.82974V8.1ZM16.0297 8.1H10.6297V9.9H16.0297V8.1ZM5.22974 4.5H3.42974V6.3H5.22974V4.5ZM16.0297 4.5H7.02974V6.3H16.0297V4.5Z" fill="#00B4D8"/>
</svg>
