<svg width="15" height="13" viewBox="0 0 15 13" fill="none" xmlns="http://www.w3.org/2000/svg">
<path id="Vector" d="M5.5 11.7409L1 13.0009L2.26 8.50088L10.5 0.300876C10.5931 0.20563 10.7044 0.129951 10.8271 0.078283C10.9499 0.0266153 11.0818 0 11.215 0C11.3482 0 11.4801 0.0266153 11.6029 0.078283C11.7256 0.129951 11.8369 0.20563 11.93 0.300876L13.7 2.08088C13.7937 2.17384 13.8681 2.28444 13.9189 2.4063C13.9697 2.52816 13.9958 2.65886 13.9958 2.79088C13.9958 2.92289 13.9697 3.05359 13.9189 3.17545C13.8681 3.29731 13.7937 3.40791 13.7 3.50088L5.5 11.7409Z" stroke="black" stroke-linecap="round" stroke-linejoin="round"/>
</svg>
