<svg width="18" height="17" viewBox="0 0 18 17" fill="none" xmlns="http://www.w3.org/2000/svg">
<path id="Vector" fill-rule="evenodd" clip-rule="evenodd" d="M18.0593 9.29816C17.7558 9.16921 17.7047 9.07826 17.795 8.76367C18.0201 7.97689 18.2519 7.19323 18.4796 6.40769C18.4989 6.34353 18.5161 6.2775 18.542 6.18343C18.2605 6.23638 17.9975 6.28373 17.7345 6.3373C17.2026 6.4432 16.674 6.55097 16.1435 6.65625C15.7968 6.72415 15.6381 6.6332 15.5398 6.31176C15.4475 6.00776 15.3565 5.70314 15.2085 5.35554C15.1746 5.40787 15.15 5.46829 15.1069 5.51252C14.4992 6.15602 13.8883 6.79766 13.2767 7.44116C13.0875 7.63676 12.877 7.72211 12.7282 7.64486C12.5097 7.52899 12.5177 7.32405 12.5536 7.1328C12.7149 6.29743 12.8823 5.46393 13.0483 4.62856C13.1698 4.02244 13.2913 3.41943 13.4162 2.78776C13.3531 2.81019 13.3106 2.8214 13.2727 2.83884C12.9287 3.00579 12.5887 3.17585 12.2441 3.33907C11.8218 3.53779 11.6093 3.47238 11.3888 3.08926C10.922 2.27757 10.4591 1.46462 9.9936 0.652302C9.9697 0.612434 9.95376 0.572566 9.91724 0.521484L9.84087 0.652302C9.37669 1.46462 8.91318 2.27757 8.44701 3.08926C8.22588 3.47238 8.01271 3.53841 7.59037 3.33907C7.24573 3.17585 6.90573 3.00579 6.56174 2.83884C6.52389 2.8214 6.48139 2.81019 6.41831 2.78776C6.54315 3.41943 6.66467 4.02244 6.7862 4.62856C6.95221 5.46144 7.12022 6.29494 7.28026 7.1328C7.31744 7.32467 7.32475 7.52962 7.10627 7.64486C6.95686 7.72211 6.74702 7.63676 6.55842 7.44116C5.94616 6.79766 5.33523 6.15602 4.72761 5.51252C4.68445 5.46829 4.65921 5.40787 4.62601 5.35554C4.47792 5.70377 4.38695 6.00776 4.29464 6.31176C4.19636 6.6332 4.03632 6.72415 3.69101 6.65625C3.16043 6.55097 2.63117 6.4432 2.09993 6.3373C1.83696 6.28373 1.57399 6.23638 1.29243 6.18343C1.31833 6.2775 1.33493 6.34415 1.35485 6.40769C1.58262 7.19323 1.81438 7.97752 2.0395 8.76367C2.12981 9.07888 2.07868 9.16921 1.7752 9.29816C1.49431 9.41776 1.21407 9.54422 0.917236 9.67442C0.970361 9.71927 1.00024 9.74606 1.03345 9.7716C1.74001 10.3111 2.44657 10.8487 3.15445 11.3881C3.8391 11.9102 4.52109 12.4316 5.2064 12.9517C5.44612 13.133 5.52515 13.3535 5.4262 13.6289C5.37042 13.7908 5.32062 13.9528 5.26882 14.1154C5.2064 14.3066 5.1453 14.4991 5.07624 14.7178C5.75558 14.6275 6.39706 14.5434 7.04319 14.4593C7.80088 14.3615 8.55791 14.2612 9.31759 14.1715C9.5779 14.1397 9.77114 14.326 9.76052 14.5683C9.70341 15.8534 9.57126 17.3043 9.56197 18.5215H10.2725C10.2632 17.3043 10.1317 15.854 10.0746 14.5683C10.0627 14.326 10.2566 14.1397 10.5169 14.1715C11.2766 14.2612 12.0336 14.3615 12.7913 14.4593C13.4374 14.5434 14.0789 14.6281 14.7582 14.7178C14.6892 14.4991 14.6281 14.3066 14.5657 14.1154C14.5139 13.9522 14.4641 13.7908 14.4083 13.6289C14.3093 13.3535 14.3883 13.133 14.6281 12.9517C15.314 12.4316 15.9954 11.9102 16.68 11.3881C17.3879 10.8493 18.0945 10.3111 18.801 9.7716C18.8342 9.74606 18.8641 9.71927 18.9172 9.67442C18.6197 9.5436 18.3408 9.41776 18.0593 9.29816Z" fill="#EC1C24"/>
</svg>
