<svg width="18" height="18" viewBox="0 0 18 18" fill="none" xmlns="http://www.w3.org/2000/svg">
<g id="twemoji:flag-united-kingdom" clip-path="url(#clip0_1660_1595)">
<path id="Vector" d="M0 4.5295V6.5H2.814L0 4.5295ZM2.332 15.5H6.5V12.5815L2.332 15.5ZM11.5 12.582V15.5H15.6675L11.5 12.582ZM0 11.5V13.4705L2.815 11.5H0ZM15.6685 2.5H11.5V5.4185L15.6685 2.5ZM18 13.471V11.5H15.1845L18 13.471ZM18 6.5V4.5295L15.1855 6.5H18ZM6.5 2.5H2.332L6.5 5.4185V2.5Z" fill="#00247D"/>
<path id="Vector_2" d="M12.5701 11.4991L17.4261 14.8996C17.6633 14.6553 17.8337 14.3542 17.9211 14.0251L14.3136 11.4991H12.5701ZM6.50011 11.4991H5.42961L0.574113 14.8991C0.834613 15.1641 1.16861 15.3536 1.54311 15.4416L6.50011 11.9706V11.4991ZM11.5001 6.49914H12.5706L17.4261 3.09914C17.1611 2.83028 16.8253 2.64215 16.4576 2.55664L11.5001 6.02764V6.49914ZM5.42961 6.49914L0.574113 3.09914C0.33709 3.34363 0.166521 3.64466 0.0786133 3.97364L3.68611 6.49914H5.42961Z" fill="#CF1B2B"/>
<path id="Vector_3" d="M18 10.5H10.5V15.5H11.5V12.582L15.6675 15.5H16C16.2656 15.5 16.5286 15.447 16.7735 15.3441C17.0183 15.2411 17.2402 15.0903 17.426 14.9005L12.57 11.5H14.3135L17.921 14.026C17.9675 13.8575 18 13.683 18 13.5V13.471L15.1845 11.5H18V10.5ZM0 10.5V11.5H2.815L0 13.4705V13.5C0 14.0455 0.2195 14.539 0.574 14.9L5.4295 11.5H6.5V11.9715L1.543 15.442C1.69 15.477 1.842 15.5 2 15.5H2.332L6.5 12.5815V15.5H7.5V10.5H0ZM18 4.5C18.0003 3.97599 17.7941 3.47298 17.426 3.1L12.5705 6.5H11.5V6.0285L16.4575 2.5575C16.3077 2.52076 16.1542 2.50147 16 2.5H15.6685L11.5 5.4185V2.5H10.5V7.5H18V6.5H15.1855L18 4.5295V4.5ZM6.5 2.5V5.4185L2.332 2.5H2C1.73431 2.49988 1.47128 2.55291 1.22639 2.65595C0.981495 2.75899 0.759682 2.90997 0.574 3.1L5.4295 6.5H3.686L0.0785 3.9745C0.0288901 4.14535 0.00248671 4.32211 0 4.5L0 4.5295L2.814 6.5H0V7.5H7.5V2.5H6.5Z" fill="#EEEEEE"/>
<path id="Vector_4" d="M7.875 7.69231V2.5H5.625V7.69231H0V10.8077H5.625V16H7.875V10.8077H13.5V7.69231H7.875Z" fill="#CF1B2B"/>
</g>
<defs>
<clipPath id="clip0_1660_1595">
<rect width="18" height="18" fill="white"/>
</clipPath>
</defs>
</svg>
