<svg width="13" height="13" viewBox="0 0 13 13" fill="none" xmlns="http://www.w3.org/2000/svg">
<path id="Vector" d="M11.1644 12.106L6.92732 7.86889C6.59104 8.13792 6.20432 8.35089 5.76716 8.50782C5.33 8.66475 4.86482 8.74322 4.37161 8.74322C3.1498 8.74322 2.11586 8.31995 1.26978 7.47343C0.42371 6.62691 0.00044837 5.59297 0 4.37161C0 3.1498 0.423261 2.11586 1.26978 1.26978C2.11631 0.42371 3.15025 0.00044837 4.37161 0C5.59342 0 6.62736 0.423261 7.47343 1.26978C8.31951 2.11631 8.74277 3.15025 8.74322 4.37161C8.74322 4.86482 8.66475 5.33 8.50782 5.76716C8.35089 6.20432 8.13792 6.59104 7.86889 6.92732L12.106 11.1644L11.1644 12.106ZM4.37161 7.39811C5.2123 7.39811 5.927 7.10375 6.51571 6.51504C7.10442 5.92633 7.39855 5.21185 7.39811 4.37161C7.39811 3.53091 7.10375 2.81621 6.51504 2.2275C5.92633 1.63879 5.21185 1.34466 4.37161 1.34511C3.53091 1.34511 2.81621 1.63947 2.2275 2.22818C1.63879 2.81688 1.34466 3.53136 1.34511 4.37161C1.34511 5.2123 1.63947 5.927 2.22818 6.51571C2.81688 7.10442 3.53136 7.39855 4.37161 7.39811Z" fill="#00B4D8"/>
</svg>
