<svg width="10" height="18" viewBox="0 0 10 18" fill="none" xmlns="http://www.w3.org/2000/svg">
<path id="Vector" d="M0.620095 0.294729C0.489262 0.428675 0.416016 0.608488 0.416016 0.795729C0.416016 0.98297 0.489262 1.16278 0.620095 1.29673L7.9296 8.79523L0.620095 16.2922C0.489262 16.4262 0.416016 16.606 0.416016 16.7932C0.416016 16.9805 0.489262 17.1603 0.620095 17.2942C0.683689 17.3595 0.759724 17.4115 0.843711 17.4469C0.927698 17.4824 1.01793 17.5006 1.10909 17.5006C1.20026 17.5006 1.29049 17.4824 1.37448 17.4469C1.45847 17.4115 1.5345 17.3595 1.5981 17.2942L9.3711 9.31873C9.50762 9.17867 9.58402 8.99082 9.58402 8.79523C9.58402 8.59964 9.50762 8.41179 9.3711 8.27173L1.5981 0.296229C1.5345 0.230914 1.45847 0.179 1.37448 0.143553C1.29049 0.108106 1.20026 0.0898438 1.10909 0.0898438C1.01793 0.0898438 0.927698 0.108106 0.843711 0.143553C0.759724 0.179 0.683689 0.230914 0.620095 0.296229V0.294729Z" fill="#111111"/>
</svg>
