<svg width="46" height="46" viewBox="0 0 46 46" fill="none" xmlns="http://www.w3.org/2000/svg">
<g id="Sound FAB">
<ellipse id="Ellipse 55" cx="23" cy="23" rx="23" ry="23" fill="#0077B6"/>
<path id="Vector" d="M23.3247 8C24.6119 8 25.8464 8.51513 26.7566 9.43206C27.6668 10.349 28.1781 11.5926 28.1781 12.8894V22.6681C28.1781 23.9648 27.6668 25.2085 26.7566 26.1254C25.8464 27.0423 24.6119 27.5575 23.3247 27.5575C22.0375 27.5575 20.803 27.0423 19.8928 26.1254C18.9826 25.2085 18.4713 23.9648 18.4713 22.6681V12.8894C18.4713 11.5926 18.9826 10.349 19.8928 9.43206C20.803 8.51513 22.0375 8 23.3247 8ZM34.6494 22.6681C34.6494 28.4212 30.4269 33.1639 24.9425 33.9625V38.966H21.7069V33.9625C16.2225 33.1639 12 28.4212 12 22.6681H15.2356C15.2356 24.8293 16.0879 26.902 17.6049 28.4303C19.1219 29.9585 21.1793 30.817 23.3247 30.817C25.47 30.817 27.5275 29.9585 29.0445 28.4303C30.5615 26.902 31.4138 24.8293 31.4138 22.6681H34.6494Z" fill="#414242"/>
</g>
</svg>
