<svg width="20" height="23" viewBox="0 0 20 23" fill="none" xmlns="http://www.w3.org/2000/svg">
<g id="Star">
<g id="Star_2">
<path d="M9.82 1.04636L12.7188 6.3753L12.8262 6.5727L13.0451 6.62346L18.7355 7.94286L14.8371 12.6144L14.7036 12.7744L14.7232 12.9818L15.3087 19.1733L10.0334 16.6842L9.82 16.5835L9.60664 16.6842L4.33131 19.1733L4.91678 12.9818L4.9364 12.7744L4.80289 12.6144L0.904525 7.94286L6.59493 6.62346L6.81384 6.5727L6.92122 6.3753L9.82 1.04636Z" fill="#E7E7E7"/>
<path d="M9.82 1.04636L12.7188 6.3753L12.8262 6.5727L13.0451 6.62346L18.7355 7.94286L14.8371 12.6144L14.7036 12.7744L14.7232 12.9818L15.3087 19.1733L10.0334 16.6842L9.82 16.5835L9.60664 16.6842L4.33131 19.1733L4.91678 12.9818L4.9364 12.7744L4.80289 12.6144L0.904525 7.94286L6.59493 6.62346L6.81384 6.5727L6.92122 6.3753L9.82 1.04636Z" fill="white"/>
<path d="M9.82 1.04636L12.7188 6.3753L12.8262 6.5727L13.0451 6.62346L18.7355 7.94286L14.8371 12.6144L14.7036 12.7744L14.7232 12.9818L15.3087 19.1733L10.0334 16.6842L9.82 16.5835L9.60664 16.6842L4.33131 19.1733L4.91678 12.9818L4.9364 12.7744L4.80289 12.6144L0.904525 7.94286L6.59493 6.62346L6.81384 6.5727L6.92122 6.3753L9.82 1.04636Z" stroke="#CAF0F8"/>
</g>
<path id="Star_3" d="M3.75091 22.8123L9.82 19.546V0L6.482 6.99925L0 8.71353L4.419 14.7536L3.75091 22.8123Z" fill="#FFCB45"/>
<rect x="0.5" y="0.5" width="18.64" height="21.8123" stroke="#CAF0F8"/>
</g>
</svg>
