<svg width="20" height="23" viewBox="0 0 20 23" fill="none" xmlns="http://www.w3.org/2000/svg">
<g id="Star">
<g id="Union">
<mask id="path-1-inside-1_2437_7290" fill="white">
<path d="M9.82143 0L13.1599 6.99925L19.6429 8.71353L15.2232 14.7536L15.8914 22.8123L9.82143 19.546L3.75145 22.8123L4.41964 14.7536L0 8.71353L6.48294 6.99925L9.82143 0Z"/>
</mask>
<path d="M9.82143 0L13.1599 6.99925L19.6429 8.71353L15.2232 14.7536L15.8914 22.8123L9.82143 19.546L3.75145 22.8123L4.41964 14.7536L0 8.71353L6.48294 6.99925L9.82143 0Z" fill="#FFCB45"/>
<path d="M9.82143 0L10.724 -0.430513L9.82143 -2.32281L8.91885 -0.430513L9.82143 0ZM13.1599 6.99925L12.2573 7.42977L12.4567 7.84766L12.9043 7.96602L13.1599 6.99925ZM19.6429 8.71353L20.4499 9.30405L21.3153 8.12139L19.8985 7.74676L19.6429 8.71353ZM15.2232 14.7536L14.4162 14.1631L14.1958 14.4643L14.2266 14.8362L15.2232 14.7536ZM15.8914 22.8123L15.4175 23.6929L17.0403 24.5661L16.888 22.7297L15.8914 22.8123ZM9.82143 19.546L10.2953 18.6654L9.82143 18.4104L9.34757 18.6654L9.82143 19.546ZM3.75145 22.8123L2.75487 22.7297L2.6026 24.5661L4.22531 23.6929L3.75145 22.8123ZM4.41964 14.7536L5.41622 14.8362L5.44706 14.4643L5.22667 14.1631L4.41964 14.7536ZM0 8.71353L-0.255643 7.74676L-1.6724 8.12139L-0.807025 9.30405L0 8.71353ZM6.48294 6.99925L6.73858 7.96602L7.1862 7.84766L7.38553 7.42977L6.48294 6.99925ZM8.91885 0.430513L12.2573 7.42977L14.0625 6.56874L10.724 -0.430513L8.91885 0.430513ZM12.9043 7.96602L19.3872 9.6803L19.8985 7.74676L13.4156 6.03248L12.9043 7.96602ZM18.8358 8.12301L14.4162 14.1631L16.0302 15.3441L20.4499 9.30405L18.8358 8.12301ZM14.2266 14.8362L14.8948 22.895L16.888 22.7297L16.2198 14.671L14.2266 14.8362ZM16.3653 21.9317L10.2953 18.6654L9.34757 20.4266L15.4175 23.6929L16.3653 21.9317ZM9.34757 18.6654L3.27759 21.9317L4.22531 23.6929L10.2953 20.4266L9.34757 18.6654ZM4.74803 22.895L5.41622 14.8362L3.42306 14.671L2.75487 22.7297L4.74803 22.895ZM5.22667 14.1631L0.807025 8.12301L-0.807025 9.30405L3.61262 15.3441L5.22667 14.1631ZM0.255643 9.6803L6.73858 7.96602L6.2273 6.03248L-0.255643 7.74676L0.255643 9.6803ZM7.38553 7.42977L10.724 0.430513L8.91885 -0.430513L5.58036 6.56874L7.38553 7.42977Z" fill="#CAF0F8" mask="url(#path-1-inside-1_2437_7290)"/>
</g>
</g>
</svg>
