<svg width="18" height="18" viewBox="0 0 18 18" fill="none" xmlns="http://www.w3.org/2000/svg">
<g id="uit:calender">
<path id="Vector" d="M14.625 3H12.375V1.875C12.375 1.77554 12.3355 1.68016 12.2652 1.60984C12.1948 1.53951 12.0995 1.5 12 1.5C11.9005 1.5 11.8052 1.53951 11.7348 1.60984C11.6645 1.68016 11.625 1.77554 11.625 1.875V3H6.375V1.875C6.375 1.77554 6.33549 1.68016 6.26517 1.60984C6.19484 1.53951 6.09946 1.5 6 1.5C5.90054 1.5 5.80516 1.53951 5.73484 1.60984C5.66451 1.68016 5.625 1.77554 5.625 1.875V3H3.375C2.8779 3.0006 2.40133 3.19833 2.04983 3.54983C1.69833 3.90133 1.5006 4.3779 1.5 4.875V14.625C1.5006 15.1221 1.69833 15.5987 2.04983 15.9502C2.40133 16.3017 2.8779 16.4994 3.375 16.5H14.625C15.1222 16.4996 15.5988 16.3019 15.9504 15.9504C16.3019 15.5988 16.4996 15.1222 16.5 14.625V4.875C16.4996 4.37784 16.3019 3.90116 15.9504 3.54961C15.5988 3.19807 15.1222 3.0004 14.625 3ZM15.75 14.625C15.75 14.9234 15.6315 15.2095 15.4205 15.4205C15.2095 15.6315 14.9234 15.75 14.625 15.75H3.375C3.07663 15.75 2.79048 15.6315 2.5795 15.4205C2.36853 15.2095 2.25 14.9234 2.25 14.625V8.25H15.75V14.625ZM15.75 7.5H2.25V4.875C2.25 4.254 2.7525 3.75 3.375 3.75H5.625V4.875C5.625 4.97446 5.66451 5.06984 5.73484 5.14016C5.80516 5.21049 5.90054 5.25 6 5.25C6.09946 5.25 6.19484 5.21049 6.26517 5.14016C6.33549 5.06984 6.375 4.97446 6.375 4.875V3.75H11.625V4.875C11.625 4.97446 11.6645 5.06984 11.7348 5.14016C11.8052 5.21049 11.9005 5.25 12 5.25C12.0995 5.25 12.1948 5.21049 12.2652 5.14016C12.3355 5.06984 12.375 4.97446 12.375 4.875V3.75H14.625C14.9234 3.75 15.2095 3.86853 15.4205 4.0795C15.6315 4.29048 15.75 4.57663 15.75 4.875V7.5Z" fill="#0F0E0E"/>
</g>
</svg>
