<svg width="74" height="74" viewBox="0 0 74 74" fill="none" xmlns="http://www.w3.org/2000/svg">
<path id="Vector" fill-rule="evenodd" clip-rule="evenodd" d="M35.378 0.0793315C34.3235 0.421332 33.7155 1.02933 33.421 2.02208C33.2547 2.57783 33.2262 3.86983 33.2262 10.6148C33.2262 19.5496 33.2167 19.4356 34.1287 20.3476C35.3495 21.5636 38.1995 21.5636 39.4202 20.3476C40.3322 19.4356 40.3227 19.5496 40.3227 10.6148C40.3227 1.96983 40.3085 1.81783 39.6055 0.981832C39.0165 0.283582 38.3847 0.0508316 36.9645 0.0128316C36.4348 -0.0170237 35.9034 0.00525 35.378 0.0793315ZM11.8512 9.46533C11.1007 9.80733 9.994 10.8903 9.60925 11.6598C9.41299 12.0445 9.30594 12.4685 9.29607 12.9002C9.28621 13.3319 9.37377 13.7603 9.55225 14.1536C9.90375 14.9373 20.9427 26.0143 21.812 26.4561C23.0422 27.0878 24.3057 26.7791 25.5787 25.5346C26.8327 24.3091 27.1652 22.9791 26.5287 21.7393C26.087 20.8701 15.01 9.83108 14.2262 9.47958C13.8517 9.31741 13.4483 9.23255 13.0402 9.2301C12.6321 9.22765 12.2277 9.30766 11.8512 9.46533ZM59.8262 9.54133C59.242 9.81208 58.2445 10.7478 53.485 15.5216C49.1102 19.9058 47.7755 21.3213 47.5617 21.7868C47.3841 22.1728 47.2926 22.5927 47.2934 23.0176C47.2942 23.4425 47.3874 23.8621 47.5665 24.2473C47.899 24.9598 48.9915 26.0808 49.7277 26.4656C50.4735 26.8551 51.5802 26.8503 52.3545 26.4561C53.1477 26.0476 64.1202 15.0751 64.5287 14.2818C64.7233 13.8734 64.8254 13.4272 64.8279 12.9748C64.8304 12.5224 64.7331 12.0751 64.543 11.6646C64.0173 10.7855 63.2748 10.0561 62.3865 9.54608C61.9934 9.33373 61.5538 9.22215 61.107 9.22132C60.6602 9.22049 60.2201 9.33044 59.8262 9.54133ZM2.09475 33.3388C0.6935 33.7806 0 34.8968 0 36.6971C0.00475 38.5353 0.68875 39.6373 2.09 40.0553C2.6505 40.2216 3.89975 40.2501 10.6875 40.2501C17.7602 40.2501 18.7055 40.2263 19.285 40.0363C19.7107 39.8965 20.0975 39.6585 20.4144 39.3417C20.7312 39.0249 20.9691 38.638 21.109 38.2123C21.5175 36.9536 21.3132 35.1676 20.6625 34.2841C20.4017 34.0005 20.095 33.7629 19.7552 33.5811L19.1045 33.2201L10.8727 33.1916C4.2465 33.1726 2.53175 33.2011 2.09475 33.3388ZM54.5632 33.2723C53.9209 33.4493 53.3405 33.8012 52.8865 34.2888C52.2357 35.1676 52.0315 36.9536 52.44 38.2123C52.7155 39.0673 53.409 39.7608 54.264 40.0363C54.8435 40.2263 55.7887 40.2501 62.8615 40.2501C69.6492 40.2501 70.8985 40.2216 71.459 40.0553C72.8602 39.6373 73.5442 38.5353 73.549 36.6971C73.549 34.8683 72.8507 33.7711 71.402 33.3341C70.9127 33.1868 69.3785 33.1583 62.8805 33.1678C58.52 33.1773 54.777 33.2248 54.5632 33.2723ZM21.8262 47.5413C21.242 47.8121 20.2445 48.7478 15.485 53.5216C11.1102 57.9058 9.7755 59.3213 9.56175 59.7868C9.38415 60.1728 9.29259 60.5927 9.29341 61.0176C9.29423 61.4425 9.38741 61.8621 9.5665 62.2473C9.899 62.9598 10.9915 64.0808 11.7277 64.4656C12.4735 64.8551 13.5802 64.8503 14.3545 64.4561C15.1477 64.0476 26.1202 53.0751 26.5287 52.2818C26.7233 51.8734 26.8255 51.4272 26.8279 50.9748C26.8304 50.5224 26.7331 50.0751 26.543 49.6646C26.0173 48.7855 25.2748 48.0561 24.3865 47.5461C23.9934 47.3337 23.5538 47.2221 23.107 47.2213C22.6602 47.2205 22.2201 47.3304 21.8262 47.5413ZM49.8512 47.4653C49.1007 47.8073 47.994 48.8903 47.6092 49.6598C47.413 50.0445 47.3059 50.4685 47.2961 50.9002C47.2862 51.3319 47.3738 51.7603 47.5522 52.1536C47.9037 52.9373 58.9427 64.0143 59.812 64.4561C61.0422 65.0878 62.3057 64.7791 63.5787 63.5346C64.8327 62.3091 65.1652 60.9791 64.5287 59.7393C64.087 58.8701 53.01 47.8311 52.2262 47.4796C51.8517 47.3174 51.4483 47.2325 51.0402 47.2301C50.6321 47.2277 50.2277 47.3077 49.8512 47.4653ZM35.5632 52.2676C34.9215 52.4484 34.3416 52.8016 33.8865 53.2888C33.231 54.1723 33.2262 54.2341 33.2262 62.7746C33.2262 69.5766 33.2547 70.8258 33.421 71.3863C33.839 72.7876 34.9457 73.4716 36.7745 73.4716C38.6032 73.4716 39.71 72.7876 40.128 71.3863C40.4225 70.3793 40.4177 55.1081 40.1185 54.2293C40.0265 53.875 39.8581 53.5452 39.625 53.2629C39.392 52.9806 39.1 52.7527 38.7695 52.5953C38.247 52.3103 37.943 52.2391 37.0452 52.2058C36.5504 52.176 36.0539 52.1967 35.5632 52.2676Z" fill="#E3E6EA"/>
</svg>
