<svg width="25" height="24" viewBox="0 0 25 24" fill="none" xmlns="http://www.w3.org/2000/svg">
<g id="web">
<path id="Vector" d="M16.4852 14C16.5652 13.34 16.6252 12.68 16.6252 12C16.6252 11.32 16.5652 10.66 16.4852 10H19.8652C20.0252 10.64 20.1252 11.31 20.1252 12C20.1252 12.69 20.0252 13.36 19.8652 14M14.7152 19.56C15.3152 18.45 15.7752 17.25 16.0952 16H19.0452C18.0852 17.65 16.5552 18.93 14.7152 19.56ZM14.4652 14H9.78524C9.68524 13.34 9.62524 12.68 9.62524 12C9.62524 11.32 9.68524 10.65 9.78524 10H14.4652C14.5552 10.65 14.6252 11.32 14.6252 12C14.6252 12.68 14.5552 13.34 14.4652 14ZM12.1252 19.96C11.2952 18.76 10.6252 17.43 10.2152 16H14.0352C13.6252 17.43 12.9552 18.76 12.1252 19.96ZM8.12524 8H5.20524C6.15524 6.34 7.69524 5.06 9.52524 4.44C8.92524 5.55 8.47524 6.75 8.12524 8ZM5.20524 16H8.12524C8.47524 17.25 8.92524 18.45 9.52524 19.56C7.69524 18.93 6.15524 17.65 5.20524 16ZM4.38524 14C4.22524 13.36 4.12524 12.69 4.12524 12C4.12524 11.31 4.22524 10.64 4.38524 10H7.76524C7.68524 10.66 7.62524 11.32 7.62524 12C7.62524 12.68 7.68524 13.34 7.76524 14M12.1252 4.03C12.9552 5.23 13.6252 6.57 14.0352 8H10.2152C10.6252 6.57 11.2952 5.23 12.1252 4.03ZM19.0452 8H16.0952C15.7752 6.75 15.3152 5.55 14.7152 4.44C16.5552 5.07 18.0852 6.34 19.0452 8ZM12.1252 2C6.59524 2 2.12524 6.5 2.12524 12C2.12524 14.6522 3.17881 17.1957 5.05418 19.0711C5.98276 19.9997 7.08515 20.7362 8.29841 21.2388C9.51167 21.7413 10.812 22 12.1252 22C14.7774 22 17.3209 20.9464 19.1963 19.0711C21.0717 17.1957 22.1252 14.6522 22.1252 12C22.1252 10.6868 21.8666 9.38642 21.364 8.17317C20.8615 6.95991 20.1249 5.85752 19.1963 4.92893C18.2677 4.00035 17.1653 3.26375 15.9521 2.7612C14.7388 2.25866 13.4385 2 12.1252 2Z" fill="white"/>
</g>
</svg>
