<svg width="13" height="13" viewBox="0 0 13 13" fill="none" xmlns="http://www.w3.org/2000/svg">
<path id="Vector" d="M6.83254 1.26252L8.05472 3.95425C8.08251 4.02257 8.12624 4.08175 8.18154 4.12589C8.23683 4.17003 8.30177 4.19758 8.36987 4.20581L11.0679 4.64186C11.146 4.65281 11.2197 4.68779 11.2802 4.7427C11.3408 4.79761 11.3858 4.87019 11.41 4.95196C11.4342 5.03374 11.4365 5.12133 11.4168 5.20451C11.3971 5.28768 11.356 5.36302 11.2985 5.42171L9.35376 7.52646C9.30413 7.57704 9.26688 7.64036 9.2454 7.71066C9.22392 7.78096 9.21889 7.856 9.23078 7.92896L9.69966 10.889C9.71324 10.9741 9.70466 11.0616 9.6749 11.1416C9.64514 11.2216 9.59539 11.2909 9.53131 11.3415C9.46724 11.3922 9.39142 11.4222 9.31247 11.4282C9.23352 11.4342 9.15461 11.4159 9.08473 11.3754L6.65574 9.97501C6.59355 9.9417 6.52518 9.92438 6.45589 9.92438C6.3866 9.92438 6.31823 9.9417 6.25604 9.97501L3.82705 11.3754C3.75717 11.4159 3.67826 11.4342 3.59931 11.4282C3.52036 11.4222 3.44454 11.3922 3.38047 11.3415C3.31639 11.2909 3.26665 11.2216 3.23688 11.1416C3.20712 11.0616 3.19854 10.9741 3.21212 10.889L3.681 7.89541C3.69289 7.82246 3.68786 7.74742 3.66638 7.67712C3.6449 7.60682 3.60765 7.5435 3.55802 7.49291L1.59023 5.42171C1.53201 5.36141 1.49107 5.28399 1.47236 5.19883C1.45366 5.11367 1.45799 5.02442 1.48483 4.94189C1.51168 4.85936 1.55989 4.78709 1.62361 4.73384C1.68734 4.68059 1.76386 4.64864 1.84389 4.64186L4.54191 4.20581C4.61001 4.19758 4.67495 4.17003 4.73024 4.12589C4.78554 4.08175 4.82927 4.02257 4.85706 3.95425L6.07924 1.26252C6.11253 1.18412 6.16567 1.11775 6.23241 1.07123C6.29915 1.02472 6.37669 1 6.45589 1C6.53509 1 6.61263 1.02472 6.67937 1.07123C6.74611 1.11775 6.79925 1.18412 6.83254 1.26252Z" stroke="#111111" stroke-width="1.67709" stroke-linecap="round" stroke-linejoin="round"/>
</svg>
