<svg width="25" height="24" viewBox="0 0 25 24" fill="none" xmlns="http://www.w3.org/2000/svg">
<g id="mingcute:youtube-fill" clip-path="url(#clip0_1916_1754)">
<g id="Group">
<path id="Vector" fill-rule="evenodd" clip-rule="evenodd" d="M12.1252 4C12.9802 4 13.8572 4.022 14.7072 4.058L15.7112 4.106L16.6722 4.163L17.5722 4.224L18.3942 4.288C19.2863 4.35628 20.1257 4.73695 20.7648 5.36304C21.4039 5.98913 21.8017 6.82054 21.8882 7.711L21.9282 8.136L22.0032 9.046C22.0732 9.989 22.1252 11.017 22.1252 12C22.1252 12.983 22.0732 14.011 22.0032 14.954L21.9282 15.864C21.9152 16.01 21.9022 16.151 21.8882 16.289C21.8016 17.1796 21.4037 18.0112 20.7644 18.6373C20.1251 19.2634 19.2855 19.6439 18.3932 19.712L17.5732 19.775L16.6732 19.837L15.7112 19.894L14.7072 19.942C13.8471 19.9794 12.9862 19.9987 12.1252 20C11.2643 19.9987 10.4034 19.9794 9.54324 19.942L8.53924 19.894L7.57824 19.837L6.67824 19.775L5.85624 19.712C4.96419 19.6437 4.1248 19.2631 3.48572 18.637C2.84664 18.0109 2.44882 17.1795 2.36224 16.289L2.32224 15.864L2.24724 14.954C2.17078 13.9711 2.13009 12.9858 2.12524 12C2.12524 11.017 2.17724 9.989 2.24724 9.046L2.32224 8.136C2.33524 7.99 2.34824 7.849 2.36224 7.711C2.44878 6.8207 2.84646 5.98942 3.48534 5.36334C4.12421 4.73727 4.96337 4.3565 5.85524 4.288L6.67624 4.224L7.57624 4.163L8.53824 4.106L9.54224 4.058C10.4027 4.02063 11.2639 4.0013 12.1252 4ZM10.1252 9.575V14.425C10.1252 14.887 10.6252 15.175 11.0252 14.945L15.2252 12.52C15.3166 12.4674 15.3925 12.3916 15.4453 12.3003C15.4981 12.209 15.5259 12.1055 15.5259 12C15.5259 11.8945 15.4981 11.791 15.4453 11.6997C15.3925 11.6084 15.3166 11.5326 15.2252 11.48L11.0252 9.056C10.934 9.00332 10.8305 8.9756 10.7251 8.97562C10.6198 8.97563 10.5163 9.00339 10.4251 9.0561C10.3339 9.1088 10.2581 9.1846 10.2055 9.27587C10.1529 9.36713 10.1252 9.47065 10.1252 9.576V9.575Z" fill="#F5F0F6"/>
</g>
</g>
<defs>
<clipPath id="clip0_1916_1754">
<rect width="24" height="24" fill="white" transform="translate(0.125244)"/>
</clipPath>
</defs>
</svg>
